<svg xmlns="http://www.w3.org/2000/svg" viewBox="0 0 159.8 519" stroke="#fff" xmlns:v="https://vecta.io/nano"><g fill="none" stroke-width="6"><path d="M68.1 228.5l12.4-127.2 10.9 125.9-10.9-7.2c-4.2 2.7-8.3 5.6-12.4 8.5h0z" stroke-miterlimit="30"/><path d="M115.4 283.2v11.5.6l-12.8.7-12.4-12.3h0l-2.6-14.8 15.7 2.2h.1 0l12 12.1h0 0 0zm-21.9-21.8l-1.2-1.2"/><path d="M93.5 261.4l9.8 9.8h-.1L87.5 269l2.6 14.8-.5-.4-.5-.5-8.8-8.6-10.3 10 2.8-15.5c-.3 0-.6.1-.9.1v-.1l-11 1.5h0l-3.1.4 9.8-9.6-9.8-9.8 14.5 2.1c0-.1 0-.2-.1-.4l-1.6-11.1c-.1-1.1-.3-2.2-.5-3.4l10.1 10.4 9.3-9.3-2.5 14 12.8-1.8h0l3.9-.9-10.2 10.5h0 0z"/><path d="M80.5 274.1l-1.3-1.2m23.6-2.1L87.2 268l2.1 15m-17.1-29.9c-.1 0-.1 0 0 0l-15.5-2.7-11.1-11v-1.9-10.2l12.8-.7 11.5 11.8.7 3.6 1.6 11.1h0 0z"/><path d="M57.7 251.4c-.3-.4-.7-.7-1.1-1.1m12.1 12l-1.2-1.1m14.1-10.9l-1.4-1.4m-10.1-10.3c0-.2 0-.3-.1-.5"/><path d="M56.7 250.4c-.1-.1-.1-.1 0 0m58.5-10.9L103.8 251l-3.9.9h0l-12.8 1.8 2.5-14 12.9-13h12.1l.6 12.8zm-34.9 9.4l-.9.9m14.1 11.6l-1.4 1.4"/><path d="M102 251.6l-2.1.3M91.2 228l-1 7.4-.4 2.6-.3 1.5-9.3 9.3-10.1-10.4-.2-.2-.3-1.8h0l-1.4-7.3 12.2-9.3 10.8 8.2zm-18.4 40.8L70 284.3l-13.3 12.9-11.9.4h0-.9l-.2-13.1 13.7-13.4 2.6-.6 11.9-1.7h.9 0 0zm9.2 3.9l-1.5 1.4M69 259.8l-1.4 1.4m-9.9 9.6c-.3 0-.5.1-.8.1m15-2l-2.8 15.5m-8.3-14.1l-.8.2"/><path d="M61.1 270.3h-.3m6.8-9.1l-9.8 9.6h0l-.3.3-8.9 2-9.7-11.9 7.6-11 10.1 1c.4.1.8.1 1.2.2 3.2 3.3 6.5 6.5 9.8 9.8zm4.5-8.1l-2.5-14.5m21.9 54.5l-12.2 9.3-10.7-8 .8-5.6.6-4.4 10.5-10.2 8.8 8.6.5.5 1.7 9.8h0 0z"/><path d="M89.7 283.2l-.5-2.8M60 270.5l-2.2.3m42-18.9l-1.1.2m-8.5 31.7v-.2m30.8-22.4l-7.6 11-10.1-1h0l-9.8-9.8 10.3-10.4 7.5-1.7 9.7 11.9h0zm-77.7 37l16 15.5 10-25m46.8 7l-16 15.5-9.5-24.8m24.4-60.3l-16-15.5-8.8 24.9"/><path d="M45 226.9l16-15.5 8.6 25.2m-25.9 47.9l-23.9-23.3m25.8-23.7l-23.9 24.8m93.5-24l23.9 23.3m-24.4 22.2l22.4-23.3m-100 19.1l-9.7 22.1 17.6-4.2m77.6-20.9l9.7 22.1-17.6-4.2m7.5-50.7l9.7-22.1-17.6 4.3"/><path d="M36.7 245.2L27 223.1l17.6 4.2m-1.3 70.9l16 15.5 10-25m46.8 7l-16 15.5-9.5-24.8m24.4-60.3l-16-15.5-8.8 24.9M45 226.9l16-15.5 8.6 25.3m-25.9 47.8l-23.9-23.3m25.8-23.7l-23.9 24.8m93.5-24l23.9 23.3"/><path d="M114.7 283.8l22.4-23.3m-100 19.1l-9.7 22.1 17.6-4.2m77.6-20.9l9.7 22.1-17.6-4.2m7.5-50.7l9.7-22.1-17.6 4.3m-77.6 19.2L27 223.1l17.6 4.2"/></g><circle cx="79.9" cy="261.2" r="2.9" fill="#fff"/></svg>