<!-- <svg xmlns="http://www.w3.org/2000/svg" viewBox="0 0 500 500" xmlns:v="https://vecta.io/nano"><path d="M226.6 442.8c-98.7-.4-178.4-80.7-178-179.4.4-98.6 80.7-178.4 179.3-178 71.4.2 135.9 43.1 163.8 108.9 38.4 91.1-4.3 196.1-95.4 234.4-22.1 9.4-45.8 14.1-69.7 14.1h0z" fill="none" stroke="#fff" stroke-dasharray="0 0 10 3" stroke-miterlimit="10" stroke-width="2"/><path d="M59.7 267.6l-10.3-3.4c-.3-.1-.3-.6 0-.7l10.3-3.4h.3l9.1 3.4c.3.2.3.6 0 .7l-9.1 3.4q-.2.1-.3 0zm333.6 0l-10.3-3.4c-.3-.1-.3-.6 0-.7l10.3-3.4h.3l9.1 3.4c.3.2.3.6 0 .7l-9.1 3.4c-.1.1-.2.1-.3 0zM230.2 430.2l-3.4 10.3c-.1.3-.6.3-.7 0l-3.4-10.3v-.3l3.4-9.1c.2-.3.6-.3.7 0l3.4 9.1v.3zm0-333.6l-3.4 10.3c-.1.3-.6.3-.7 0l-3.4-10.3v-.3l3.4-9.1c.2-.3.6-.3.7 0l3.4 9.1v.3z" fill="#fff"/></svg> -->

<svg xmlns="http://www.w3.org/2000/svg" viewBox="0 0 500 500" xmlns:v="https://vecta.io/nano">
<path d="M226.6 442.8c-98.7-.4-178.4-80.7-178-179.4.4-98.6 80.7-178.4 179.3-178 71.4.2 135.9 43.1 163.8 108.9 38.4 91.1-4.3 196.1-95.4 234.4-22.1 9.4-45.8 14.1-69.7 14.1h0z" fill="none" stroke="#fff" stroke-dasharray="0 0 10 3" stroke-miterlimit="10" stroke-width="2"/>
</svg>