<svg xmlns="http://www.w3.org/2000/svg" viewBox="0 0 91 84" xmlns:v="https://vecta.io/nano"><style><![CDATA[.B{fill:#161616}.C{stroke-miterlimit:10}]]></style><path d="M45.4 69.2c-.2 0-.3 0-.5-.1L20.8 55.9c-.3-.2-.5-.5-.5-.9V21.8c0-.4.2-.7.5-.9.2-.1.3-.1.5-.1a.87.87 0 0 1 .5.1l24 13.1c.3.2.5.5.5.9l.1 33.2c0 .4-.2.7-.5.9-.1.2-.3.2-.5.2z" class="B"/><path d="M21.3 21.8l24 13.1.1 33.2L21.3 55V21.8m0-2c-.36 0-.71.1-1 .3-.6.4-1 1-1 1.7V55c0 .7.4 1.4 1 1.8L44.5 70c.3.2.6.2 1 .2.36 0 .71-.1 1-.3.6-.4 1-1 1-1.7L47.4 35c0-.7-.4-1.4-1-1.8l-24-13.1c-.4-.2-.7-.3-1.1-.3z" fill="#fff" stroke="#fff" class="C"/><path d="M45.7 35.9c-.2 0-.3 0-.5-.1L20.9 22.7c-.3-.2-.5-.5-.5-.9s.2-.7.5-.9L45.3 6.3c.2-.1.3-.1.5-.1s.4 0 .5.1L70.6 21c.3.2.5.5.5.9s-.2.7-.5.9l-24.4 13c-.2.1-.3.1-.5.1z" class="B"/><path d="M45.8 7.2l24.3 14.7-24.4 13-24.4-13.1L45.8 7.2m0-2c-.36 0-.71.1-1 .3L20.3 20.1c-.6.4-1 1-1 1.8 0 .7.4 1.4 1.1 1.7l24.4 13.1c.3.2.6.2.9.2s.6-.1.9-.2L71 23.6c.6-.3 1-1 1.1-1.7 0-.7-.3-1.4-1-1.8L46.9 5.4c-.4-.1-.7-.2-1.1-.2z" fill="#fff" stroke="#fff" class="C"/><path d="M46 69.2c-.2 0-.4 0-.5-.1-.3-.2-.5-.5-.5-.9l.1-33.2c0-.4.2-.7.5-.9l24-13.1c.1-.1.3-.1.5-.1s.4 0 .5.1c.3.2.5.5.5.9V55c0 .4-.2.7-.5.9L46.5 69.1c-.2.1-.4.1-.5.1z" class="B"/><path d="M70.1 21.8V55L46 68.2l.1-33.2 24-13.2m0-2c-.3 0-.7.1-1 .2l-24 13.1c-.6.3-1 1-1 1.8L44 68.1c0 .7.4 1.4 1 1.7.29.2.64.31 1 .3.3 0 .7-.1 1-.2l24.1-13.2c.6-.4 1-1 1-1.8V21.8c0-.7-.4-1.4-1-1.7-.29-.2-.64-.31-1-.3z" fill="#fff" stroke="#fff" class="C"/><path d="M45.4 68.6h-.2L21.1 55.4c-.1-.1-.2-.2-.2-.3V21.8c0-.1.1-.3.2-.3s.1-.1.2-.1h.2l24 13.1c.1.1.2.2.2.3l.1 33.4c0 .1-.1.3-.2.3 0 .1-.1.1-.2.1z"/><path d="M21.3 21.8l24 13.1.1 33.2L21.3 55V21.8m0-.7c-.1 0-.3 0-.4.1-.2.1-.4.4-.4.6V55c0 .3.1.5.4.7L45 68.9c.1.1.2.1.4.1.1 0 .3 0 .4-.1.2-.1.4-.4.4-.6l-.1-33.2c0-.3-.2-.5-.4-.7l-24-13.1c-.1-.2-.3-.2-.4-.2z"/><path d="M46 68.6q-.1 0-.2-.1c-.1-.1-.2-.2-.2-.3l.1-33.2c0-.1.1-.3.2-.3l24-13.1h.2q.1 0 .2.1c.1.1.2.2.2.3v33c0 .1-.1.3-.2.3L46.2 68.5c-.1.1-.2.1-.2.1z" fill="#1c1c1c"/><path d="M70.1 21.8V55L46 68.2l.1-33.2 24-13.2m0-.7c-.1 0-.2 0-.4.1l-24 13.1c-.2.1-.4.4-.4.7l-.1 33.2c0 .3.1.5.4.6.1.1.3.1.4.1s.2 0 .4-.1l24.1-13.2c.2-.1.4-.4.4-.7V21.8c0-.3-.1-.5-.4-.6-.2-.1-.3-.1-.4-.1z"/><path d="M45.7 35.3h-.2L21.1 22.2c-.1-.1-.2-.2-.2-.3s.1-.3.2-.3L45.6 6.8c.1 0 .1-.1.2-.1s.1 0 .2.1l24.3 14.7c.1.1.2.2.2.3s-.1.3-.2.3L45.9 35.2q-.1.1-.2.1z" class="B"/><path d="M45.8 7.2l24.3 14.7-24.4 13-24.4-13.1L45.8 7.2m0-.8c-.1 0-.3 0-.4.1L20.9 21.2c-.2.1-.4.4-.4.7s.2.5.4.6l24.4 13.1c.1.1.2.1.4.1s.2 0 .4-.1l24.4-13.1c.2-.1.4-.4.4-.6 0-.3-.1-.5-.4-.7L46.2 6.5c-.1-.1-.2-.1-.4-.1z"/><path d="M20.6,30.3h.7l24.4,13.1,24.4-13.1h.7" fill="none" stroke="#eac242" stroke-width="2" class="C"/></svg>